# xmcd
#
# Track frame offsets: 
#        150
#        14457
#        28085
#        41619
#        56984
#        72373
#        87974
#        100685
#        115357
#        129937
#        142436
#        157237
#        171932
#        181271
#
# Disc length: 2599 seconds
#
# Revision: 3
# Processed by: cddbd v1.5.2PL0 Copyright (c) Steve Scherf et al.
# Submitted via: ExactAudioCopy v1.3
#
DISCID=cd0a250e
DTITLE=Věra Martinová a Schovanky - Svět je plnej různejch řečí
DYEAR=2002
DGENRE=Country
TTITLE0=Čekání
TTITLE1=Až tě uvidí
TTITLE2=Rákosí
TTITLE3=Máš ho akorát
TTITLE4=Návrat
TTITLE5=Ten, kdo poznal
TTITLE6=Chlap, co na mne zbyl
TTITLE7=Odpouštím
TTITLE8=Krásný léto
TTITLE9=Lasem slůvek spotaná
TTITLE10=Proč se k ránu chlapi ztrácejí
TTITLE11=Svět je plnej různejch řečí
TTITLE12=Buchty makový
TTITLE13=Whiskey, to je moje gusto
EXTD=
EXTT0=
EXTT1=
EXTT2=
EXTT3=
EXTT4=
EXTT5=
EXTT6=
EXTT7=
EXTT8=
EXTT9=
EXTT10=
EXTT11=
EXTT12=
EXTT13=
PLAYORDER=
